<svg height="512" viewBox="0 0 512 512" width="512" xmlns="http://www.w3.org/2000/svg"><g><g fill="#57a4ff"><path d="m296 160h-80l-8 24h96z"/><path d="m40 264h432v128h-432z"/><path d="m40 416h80v24h-80z"/><path d="m392 416h80v24h-80z"/></g><g fill="#004fac"><path d="m311.59 181.47-8-24a8 8 0 0 0 -7.59-5.47v-32a40.069 40.069 0 0 0 -32-39.2v-8.8a8 8 0 0 0 -16 0v8.8a40.069 40.069 0 0 0 -32 39.2v32a8 8 0 0 0 -7.59 5.47l-8 24a8 8 0 0 0 7.59 10.53h40a8 8 0 0 0 16 0h40a8 8 0 0 0 7.59-10.53zm-79.59-61.47a24 24 0 0 1 48 0v32h-48zm-12.9 56 2.67-8h68.46l2.67 8z"/><path d="m354.591 199.279a7.991 7.991 0 0 0 10.608-3.93 152.292 152.292 0 0 0 0-126.7 8 8 0 0 0 -14.539 6.678 136.3 136.3 0 0 1 0 113.342 8 8 0 0 0 3.931 10.61z"/><path d="m325.5 185.941a7.995 7.995 0 0 0 10.608-3.934 120.271 120.271 0 0 0 0-100.014 8 8 0 0 0 -14.543 6.674 104.257 104.257 0 0 1 0 86.666 8 8 0 0 0 3.935 10.608z"/><path d="m149.915 200.012a8.005 8.005 0 0 0 7.265-11.341 136.3 136.3 0 0 1 0-113.342 8 8 0 0 0 -14.539-6.678 152.292 152.292 0 0 0 0 126.7 8 8 0 0 0 7.274 4.661z"/><path d="m179.005 186.672a8 8 0 0 0 7.266-11.338 104.272 104.272 0 0 1 0-86.668 8 8 0 0 0 -14.542-6.672 120.267 120.267 0 0 0 0 100.012 8 8 0 0 0 7.276 4.666z"/><path d="m328 288h-48a8 8 0 0 0 -8 8v64a8 8 0 0 0 8 8h48a8 8 0 0 0 8-8v-64a8 8 0 0 0 -8-8zm-8 64h-32v-48h32z"/><path d="m400 288h-48a8 8 0 0 0 -8 8v64a8 8 0 0 0 8 8h48a8 8 0 0 0 8-8v-64a8 8 0 0 0 -8-8zm-8 64h-32v-48h32z"/><path d="m160 288h-48a8 8 0 0 0 -8 8v64a8 8 0 0 0 8 8h48a8 8 0 0 0 8-8v-64a8 8 0 0 0 -8-8zm-8 64h-32v-48h32z"/><path d="m256 295a8 8 0 0 0 -8 8v8a8 8 0 0 0 16 0v-8a8 8 0 0 0 -8-8z"/><path d="m256 335a8 8 0 0 0 -8 8v8a8 8 0 0 0 16 0v-8a8 8 0 0 0 -8-8z"/><path d="m496 232h-480a8 8 0 0 0 -8 8v176a8 8 0 0 0 8 8h16v16a8 8 0 0 0 8 8h80a8 8 0 0 0 8-8v-16h256v16a8 8 0 0 0 8 8h80a8 8 0 0 0 8-8v-16h16a8 8 0 0 0 8-8v-176a8 8 0 0 0 -8-8zm-384 200h-64v-8h64zm352 0h-64v-8h64zm24-24h-464v-160h464z"/><path d="m472 256h-432a8 8 0 0 0 -8 8v128a8 8 0 0 0 8 8h432a8 8 0 0 0 8-8v-128a8 8 0 0 0 -8-8zm-8 128h-416v-112h416z"/><path d="m232 320h-40v-16h40a8 8 0 0 0 0-16h-48a8 8 0 0 0 -8 8v64a8 8 0 0 0 8 8h48a8 8 0 0 0 8-8v-32a8 8 0 0 0 -8-8zm-8 32h-32v-16h32z"/></g></g></svg>